<svg xmlns="http://www.w3.org/2000/svg" viewBox="0 0 100 100">
  <circle cx="50" cy="50" r="50" fill="#0a0f0a"/>
  <circle cx="50" cy="50" r="36" fill="#e8f5e8"/>
  <polygon points="50,32 63,41 58,56 42,56 37,41" fill="#0a0f0a"/>
  <polygon points="25,28 37,28 37,41 25,41 20,35" fill="#0a0f0a"/>
  <polygon points="75,28 63,28 63,41 75,41 80,35" fill="#0a0f0a"/>
  <polygon points="27,62 38,56 42,56 42,68 30,70" fill="#0a0f0a"/>
  <polygon points="73,62 62,56 58,56 58,68 70,70" fill="#0a0f0a"/>
  <polygon points="50,74 42,68 42,56 58,56 58,68" fill="#0a0f0a"/>
  <circle cx="50" cy="50" r="36" fill="none" stroke="#7dff7d" stroke-width="2.5"/>
</svg>
